<svg width="100" height="100" xmlns="http://www.w3.org/2000/svg">

 <g>
  <title>background</title>
  <rect fill="none" id="canvas_background" height="402" width="582" y="-1" x="-1"/>
 </g>
 <g>
  <title>Layer 1</title>
  <path fill="#ffa400" id="svg_1" d="m91.628,96.75l-84.742,0l0,-11.894l84.742,0l0,11.894zm-81.769,-2.974l78.795,0l0,-5.946l-78.795,0l0,5.946z"/>
  <path fill="#ffa400" id="svg_2" d="m33.646,46.202l0,-10.407l-19.327,0l0,10.407l2.973,0l0,31.221l-2.973,0l0,10.407l19.327,0l0,-10.407l-2.973,0l0,-31.221l2.973,0zm-16.353,-7.433l13.38,0l0,4.46l-13.38,0l0,-4.46zm13.38,46.087l-13.38,0l0,-4.46l13.38,0l0,4.46zm-2.973,-7.433l-7.433,0l0,-31.221l7.433,0l0,31.221z"/>
  <path fill="#ffa400" id="svg_3" d="m58.92,46.202l0,-10.407l-19.327,0l0,10.407l2.973,0l0,31.221l-2.973,0l0,10.407l19.327,0l0,-10.407l-2.973,0l0,-31.221l2.973,0zm-16.353,-7.433l13.38,0l0,4.46l-13.38,0l0,-4.46zm13.38,46.087l-13.38,0l0,-4.46l13.38,0l0,4.46zm-2.974,-7.433l-7.433,0l0,-31.221l7.433,0l0,31.221z"/>
  <path fill="#ffa400" id="svg_4" d="m84.194,46.202l0,-10.407l-19.327,0l0,10.407l2.973,0l0,31.221l-2.973,0l0,10.407l19.327,0l0,-10.407l-2.973,0l0,-31.221l2.973,0zm-16.354,-7.433l13.38,0l0,4.46l-13.38,0l0,-4.46zm13.381,46.087l-13.381,0l0,-4.46l13.38,0l0,4.46l0.001,0zm-2.974,-7.433l-7.433,0l0,-31.221l7.433,0l0,31.221z"/>
  <path  fill="#ffa400" id="svg_5" d="m55.947,3.385c-1.487,-1.041 -3.568,-1.635 -5.947,-1.635s-4.46,0.595 -6.095,1.635l-35.163,23.49l-0.369,0.247l0,0l-0.743,0.497l0,11.15l84.742,0l0,-11.15l-36.425,-24.234zm-10.407,2.379c1.189,-0.595 2.825,-1.041 4.46,-1.041s3.271,0.297 4.311,1.041l31.734,21.111l-72.105,0l31.6,-21.111zm-34.938,30.031l0,-5.947l78.795,0l0,5.947l-78.795,0z"/>
 </g>
</svg>